<?xml version="1.0" encoding="UTF-8"?>
<svg width="512px" height="512px" viewBox="0 0 512 512" version="1.1" xmlns="http://www.w3.org/2000/svg" xmlns:xlink="http://www.w3.org/1999/xlink">
    <!-- Generator: Sketch 47.1 (45422) - http://www.bohemiancoding.com/sketch -->
    <title>ic_coupon</title>
    <desc>Created with Sketch.</desc>
    <defs>
        <polygon id="path-1" points="512 176.0001 512 352 0 352 0 176.0001 0 0.0002 512 0.0002"></polygon>
    </defs>
    <g id="Page-1" stroke="none" stroke-width="1" fill="none" fill-rule="evenodd">
        <g id="ic_coupon">
            <g id="Page-1" transform="translate(0.000000, 80.000000)">
                <mask id="mask-2" fill="white">
                    <use xlink:href="#path-1"></use>
                </mask>
                <g id="Clip-2"></g>
                <path d="M368,288.0002 C341.536,288.0002 320,266.4642 320,240.0002 C320,213.5362 341.536,192.0002 368,192.0002 C394.464,192.0002 416,213.5362 416,240.0002 C416,266.4642 394.464,288.0002 368,288.0002 L368,288.0002 Z M240,288.0002 C236.384,288.0002 232.768,286.7842 229.76,284.2882 C222.976,278.6242 222.048,268.5442 227.712,261.7602 L387.712,69.7602 C393.408,62.9442 403.488,62.1122 410.24,67.7122 C417.024,73.3762 417.92,83.4562 412.256,90.2722 L252.256,282.2712 C249.12,286.0162 244.576,288.0002 240,288.0002 L240,288.0002 Z M272,64.0002 C298.464,64.0002 320,85.5362 320,112.0002 C320,138.4642 298.464,160.0002 272,160.0002 C245.536,160.0002 224,138.4642 224,112.0002 C224,85.5362 245.536,64.0002 272,64.0002 L272,64.0002 Z M128,96.0002 L160,96.0002 L160,64.0002 L128,64.0002 L128,96.0002 Z M128,160.0002 L160,160.0002 L160,128.0002 L128,128.0002 L128,160.0002 Z M128,224.0002 L160,224.0002 L160,192.0002 L128,192.0002 L128,224.0002 Z M128,288.0002 L160,288.0002 L160,256.0002 L128,256.0002 L128,288.0002 Z M480,0.0002 L176,0.0002 C171.744,0.0002 167.68,1.6962 164.672,4.6722 L144,25.3762 L123.328,4.6722 C120.32,1.6962 116.256,0.0002 112,0.0002 L32,0.0002 C14.368,0.0002 0,14.3682 0,32.0002 L0,320.0002 C0,337.6642 14.368,352.0002 32,352.0002 L112,352.0002 C116.256,352.0002 120.32,350.3042 123.328,347.3282 L144,326.6242 L164.672,347.2962 C167.68,350.3042 171.744,352.0002 176,352.0002 L480,352.0002 C497.664,352.0002 512,337.6642 512,320.0002 L512,32.0002 C512,14.3682 497.664,0.0002 480,0.0002 L480,0.0002 Z" id="Fill-1" fill="#D80027" mask="url(#mask-2)"></path>
            </g>
        </g>
    </g>
</svg>