<?xml version="1.0" encoding="UTF-8"?>
<svg width="512px" height="512px" viewBox="0 0 512 512" version="1.1" xmlns="http://www.w3.org/2000/svg" xmlns:xlink="http://www.w3.org/1999/xlink">
    <!-- Generator: Sketch 47.1 (45422) - http://www.bohemiancoding.com/sketch -->
    <title>ic_facebook</title>
    <desc>Created with Sketch.</desc>
    <defs>
        <polygon id="path-1" points="512 256.00005 512 512 0 512 0 256.00005 0 0.0001 512 0.0001"></polygon>
    </defs>
    <g id="Page-1" stroke="none" stroke-width="1" fill="none" fill-rule="evenodd">
        <g id="ic_facebook">
            <g id="Page-1">
                <mask id="mask-2" fill="white">
                    <use xlink:href="#path-1"></use>
                </mask>
                <g id="Clip-2"></g>
                <path d="M512,85.3391 C512,40.4991 471.518,0.0001 426.667,0.0001 L85.333,0.0001 C40.482,0.0001 0,40.4991 0,85.3391 L0,426.6611 C0,471.5011 40.482,512.0001 85.339,512.0001 L256,512.0001 L256,318.5771 L193.422,318.5771 L193.422,233.2441 L256,233.2441 L256,199.9991 C256,142.6601 299.054,91.0221 352,91.0221 L420.978,91.0221 L420.978,176.3561 L352,176.3561 C344.451,176.3561 335.645,185.5201 335.645,199.2481 L335.645,233.2441 L420.978,233.2441 L420.978,318.5771 L335.645,318.5771 L335.645,512.0001 L426.667,512.0001 C471.518,512.0001 512,471.5011 512,426.6611 L512,85.3391 Z" id="Fill-1" fill="#FFFFFF" mask="url(#mask-2)"></path>
            </g>
        </g>
    </g>
</svg>