<?xml version="1.0" encoding="UTF-8"?>
<svg width="512px" height="512px" viewBox="0 0 512 512" version="1.1" xmlns="http://www.w3.org/2000/svg" xmlns:xlink="http://www.w3.org/1999/xlink">
    <!-- Generator: Sketch 47.1 (45422) - http://www.bohemiancoding.com/sketch -->
    <title>ic_line</title>
    <desc>Created with Sketch.</desc>
    <defs>
        <path d="M0,203.369772 C0,91.0516886 114.471856,0 255.682683,0 C392.910946,0 504.888719,85.9899401 511.094036,193.920766 C511.273389,197.052551 511.774659,207.054946 511.334707,213.790659 C511.066443,217.874395 510.486994,223.078707 509.312766,229.264096 C506.167186,248.962299 499.474395,267.776 489.767856,285.29897 C485.195114,293.552287 462.766754,324.975904 455.890012,333.262946 C418.090922,378.794156 354.793006,431.350802 248.93624,482.437365 C239.059545,487.206323 227.789413,479.274922 229.000431,468.37576 L234.335042,420.361198 C235.184287,412.707257 229.661126,405.792192 222.001054,404.992 C96.7097485,391.874683 0,306.606754 0,203.369772 Z M347.229509,257.647904 C347.229509,264.869557 353.085317,270.726898 360.308503,270.726898 L412.622946,270.726898 C419.844599,270.726898 425.70194,264.869557 425.70194,257.647904 C425.70194,250.423186 419.844599,244.567377 412.622946,244.567377 L373.387497,244.567377 L373.387497,221.352623 L412.622946,221.352623 C419.844599,221.352623 425.70194,215.496814 425.70194,208.273629 C425.70194,201.050443 419.844599,195.194635 412.622946,195.194635 L373.387497,195.194635 L373.387497,171.97988 L412.622946,171.97988 C419.844599,171.982946 425.70194,166.127138 425.70194,158.903952 C425.70194,151.680766 419.844599,145.824958 412.622946,145.824958 L360.308503,145.824958 C353.085317,145.824958 347.229509,151.680766 347.229509,158.903952 L347.229509,257.647904 Z M301.457629,158.903952 L301.457629,219.226443 C301.457629,219.226443 249.225964,151.098251 248.427305,150.203018 C245.931689,147.402347 242.25418,145.679329 238.171976,145.834156 C231.057629,146.105485 225.601916,152.321533 225.601916,159.440479 L225.601916,257.646371 C225.601916,264.868024 231.457725,270.725365 238.68091,270.725365 C245.904096,270.725365 251.759904,264.868024 251.759904,257.646371 L251.759904,197.688719 C251.759904,197.688719 304.785629,266.410156 305.564359,267.150563 C307.877557,269.33806 310.984814,270.693174 314.413988,270.725365 C321.67703,270.789749 327.614084,264.365222 327.614084,257.10218 L327.614084,158.903952 C327.614084,151.680766 321.758275,145.824958 314.53509,145.824958 C307.310371,145.826491 301.457629,151.680766 301.457629,158.903952 Z M179.82697,260.505293 C179.82697,266.149557 184.402778,270.726898 190.047042,270.726898 L195.764886,270.726898 C201.40915,270.726898 205.984958,266.149557 205.984958,260.505293 L205.984958,156.04503 C205.984958,150.400766 201.40915,145.824958 195.764886,145.824958 L190.047042,145.824958 C184.402778,145.824958 179.82697,150.400766 179.82697,156.04503 L179.82697,260.505293 Z M88.9316407,257.647904 C88.9316407,264.869557 94.7874491,270.726898 102.010635,270.726898 L154.325078,270.726898 C161.548263,270.726898 167.404072,264.869557 167.404072,257.647904 C167.404072,250.423186 161.548263,244.567377 154.325078,244.567377 L115.089629,244.567377 L115.089629,158.903952 C115.089629,151.680766 109.23382,145.824958 102.010635,145.824958 C94.7874491,145.824958 88.9316407,151.680766 88.9316407,158.903952 L88.9316407,257.647904 Z" id="path-1"></path>
    </defs>
    <g id="Page-1" stroke="none" stroke-width="1" fill="none" fill-rule="evenodd">
        <g id="ic_line">
            <g id="Group-2" transform="translate(0.000000, 14.000000)">
                <g id="Group">
                    <g id="Page-1">
                        <mask id="mask-2" fill="white">
                            <use xlink:href="#path-1"></use>
                        </mask>
                        <g id="Clip-2"></g>
                        <polygon id="Fill-1" fill="#FFFFFF" mask="url(#mask-2)" points="-7.66467066 491.516934 519.177198 491.516934 519.177198 -7.66467066 -7.66467066 -7.66467066"></polygon>
                    </g>
                </g>
            </g>
        </g>
    </g>
</svg>