<?xml version="1.0" encoding="UTF-8"?>
<svg width="512px" height="512px" viewBox="0 0 512 512" version="1.1" xmlns="http://www.w3.org/2000/svg" xmlns:xlink="http://www.w3.org/1999/xlink">
    <!-- Generator: Sketch 47.1 (45422) - http://www.bohemiancoding.com/sketch -->
    <title>ic_calender</title>
    <desc>Created with Sketch.</desc>
    <defs>
        <path d="M302.545455,23.2727273 C302.545455,10.4029091 312.948364,0 325.818182,0 C338.664727,0 349.090909,10.4029091 349.090909,23.2727273 L349.090909,46.5454545 L395.636364,46.5454545 C434.199273,46.5454545 465.454545,77.824 465.454545,116.363636 L465.454545,442.181818 C465.454545,480.744727 434.199273,512 395.636364,512 L69.8181818,512 C31.2552727,512 0,480.744727 0,442.181818 L0,116.363636 C0,77.824 31.2552727,46.5454545 69.8181818,46.5454545 L116.363636,46.5454545 L116.363636,23.2727273 C116.363636,10.4029091 126.789818,0 139.636364,0 C152.482909,0 162.909091,10.4029091 162.909091,23.2727273 L162.909091,46.5454545 L302.545455,46.5454545 L302.545455,23.2727273 Z M349.090909,116.363636 C349.090909,129.210182 338.664727,139.636364 325.818182,139.636364 C312.948364,139.636364 302.545455,129.210182 302.545455,116.363636 L302.545455,93.0909091 L162.909091,93.0909091 L162.909091,116.363636 C162.909091,129.210182 152.482909,139.636364 139.636364,139.636364 C126.789818,139.636364 116.363636,129.210182 116.363636,116.363636 L116.363636,93.0909091 L69.8181818,93.0909091 C56.9716364,93.0909091 46.5454545,103.517091 46.5454545,116.363636 L46.5454545,186.181818 L418.909091,186.181818 L418.909091,116.363636 C418.909091,103.517091 408.506182,93.0909091 395.636364,93.0909091 L349.090909,93.0909091 L349.090909,116.363636 Z M46.5454545,442.181818 C46.5454545,455.051636 56.9716364,465.454545 69.8181818,465.454545 L395.636364,465.454545 C408.506182,465.454545 418.909091,455.051636 418.909091,442.181818 L418.909091,232.727273 L46.5454545,232.727273 L46.5454545,442.181818 Z" id="path-1"></path>
    </defs>
    <g id="Page-1" stroke="none" stroke-width="1" fill="none" fill-rule="evenodd">
        <g id="ic_calender">
            <g id="Page-1" transform="translate(23.000000, 0.000000)">
                <mask id="mask-2" fill="white">
                    <use xlink:href="#path-1"></use>
                </mask>
                <g id="Clip-2"></g>
                <polygon id="Fill-1" fill="#000000" mask="url(#mask-2)" points="-116.363636 628.363636 581.818182 628.363636 581.818182 -116.363636 -116.363636 -116.363636"></polygon>
                <polygon id="Fill-3" fill="#000000" mask="url(#mask-2)" points="-162.909091 651.636364 628.363636 651.636364 628.363636 -139.636364 -162.909091 -139.636364"></polygon>
            </g>
        </g>
    </g>
</svg>