<?xml version="1.0" encoding="UTF-8"?>
<svg width="512px" height="512px" viewBox="0 0 512 512" version="1.1" xmlns="http://www.w3.org/2000/svg" xmlns:xlink="http://www.w3.org/1999/xlink">
    <!-- Generator: Sketch 47.1 (45422) - http://www.bohemiancoding.com/sketch -->
    <title>ic_mobile-banking-default</title>
    <desc>Created with Sketch.</desc>
    <defs>
        <polygon id="path-1" points="106.667 512 405.334 512 405.334 352.0002 106.667 352.0002"></polygon>
        <polygon id="path-3" points="405.333 0 106.667 0 106.667 138.6668 405.333 138.6668 405.333 1.13686838e-13"></polygon>
        <polygon id="path-5" points="0 512 512 512 512 0 0 0"></polygon>
    </defs>
    <g id="Page-1" stroke="none" stroke-width="1" fill="none" fill-rule="evenodd">
        <g id="ic_mobile-banking-default">
            <mask id="mask-2" fill="white">
                <use xlink:href="#path-1"></use>
            </mask>
            <g id="Clip-2"></g>
            <path d="M373.333,490.6672 L138.667,490.6672 C132.776,490.6672 128,485.8912 128,480.0002 L128,448.0002 L384,448.0002 L384,480.0002 C384,485.8912 379.224,490.6672 373.333,490.6672 L373.333,490.6672 Z M384,426.6672 L128,426.6672 L128,416.0002 L106.667,416.0002 L106.667,480.0002 C106.667,497.6732 120.994,512.0002 138.667,512.0002 L373.334,512.0002 C391.007,512.0002 405.334,497.6732 405.334,480.0002 L405.334,352.0002 L384,352.0002 L384,426.6672 Z" id="Fill-1" fill="#C0C0C0" mask="url(#mask-2)"></path>
            <mask id="mask-4" fill="white">
                <use xlink:href="#path-3"></use>
            </mask>
            <g id="Clip-5"></g>
            <path d="M138.667,21.3328 L373.334,21.3328 C379.224,21.3328 384,26.1088 384,31.9998 L384,63.9998 L128,63.9998 L128,31.9998 C128,26.1088 132.776,21.3328 138.667,21.3328 L138.667,21.3328 Z M128,85.3328 L384,85.3328 L384,95.9998 L405.333,95.9998 L405.333,31.9998 C405.333,14.3268 391.006,-0.0002 373.333,-0.0002 L138.667,-0.0002 C120.994,-0.0002 106.667,14.3268 106.667,31.9998 L106.667,138.6668 L128,138.6668 L128,85.3328 Z" id="Fill-4" fill="#C0C0C0" mask="url(#mask-4)"></path>
            <mask id="mask-6" fill="white">
                <use xlink:href="#path-5"></use>
            </mask>
            <g id="Clip-8"></g>
            <polygon id="Fill-7" fill="#C0C0C0" mask="url(#mask-6)" points="224 53.333 288 53.333 288 32 224 32"></polygon>
            <path d="M299.7471,373.3333 C304.0071,352.4523 320.4521,336.0073 341.3331,331.7473 L341.3331,373.3333 L299.7471,373.3333 Z M21.3331,331.7473 C42.2141,336.0073 58.6591,352.4523 62.9191,373.3333 L21.3331,373.3333 L21.3331,331.7473 Z M62.9191,181.3333 C58.6591,202.2143 42.2141,218.6593 21.3331,222.9193 L21.3331,181.3333 L62.9191,181.3333 Z M341.3331,222.9193 C320.4521,218.6593 304.0071,202.2143 299.7471,181.3333 L341.3331,181.3333 L341.3331,222.9193 Z M278.1151,373.3333 L84.5511,373.3333 C79.8421,340.6573 54.0091,314.8243 21.3331,310.1153 L21.3331,244.5513 C54.0091,239.8423 79.8421,214.0093 84.5511,181.3333 L278.1151,181.3333 C282.8241,214.0093 308.6571,239.8423 341.3331,244.5513 L341.3331,310.1153 C308.6571,314.8253 282.8251,340.6573 278.1151,373.3333 L278.1151,373.3333 Z M362.6671,384.0003 L362.6671,170.6673 C362.6671,164.7763 357.8911,160.0003 352.0001,160.0003 L10.6671,160.0003 C4.7761,160.0003 0.0001,164.7763 0.0001,170.6673 L0.0001,384.0003 C0.0001,389.8913 4.7761,394.6673 10.6671,394.6673 L352.0001,394.6673 C357.8911,394.6673 362.6671,389.8913 362.6671,384.0003 L362.6671,384.0003 Z" id="Fill-9" fill="#C0C0C0" mask="url(#mask-6)"></path>
            <path d="M501.333,117.3328 L256,117.3328 C250.109,117.3328 245.333,122.1088 245.333,127.9998 L245.333,138.6668 L490.666,138.6668 L490.666,255.9998 L384,255.9998 L384,277.3328 L490.667,277.3328 L490.667,309.3328 L384,309.3328 L384,330.6658 L501.333,330.6658 C507.224,330.6658 512,325.8898 512,319.9998 L512,127.9998 C512,122.1088 507.224,117.3328 501.333,117.3328" id="Fill-10" fill="#C0C0C0" mask="url(#mask-6)"></path>
            <polygon id="Fill-11" fill="#C0C0C0" mask="url(#mask-6)" points="384 192 426.667 192 426.667 170.667 384 170.667"></polygon>
            <polygon id="Fill-12" fill="#C0C0C0" mask="url(#mask-6)" points="448 192 469.333 192 469.333 170.667 448 170.667"></polygon>
            <path d="M181.333,320.0002 C157.769,320.0002 138.666,300.8962 138.666,277.3332 C138.666,253.7692 157.768,234.6662 181.333,234.6662 C204.898,234.6662 224,253.7692 224,277.3332 C224,300.8962 204.897,320.0002 181.333,320.0002 M181.333,213.3332 C145.987,213.3332 117.333,241.9872 117.333,277.3332 C117.333,312.6792 145.987,341.3332 181.333,341.3332 C216.665,341.2982 245.298,312.6652 245.333,277.3332 C245.333,241.9872 216.68,213.3332 181.333,213.3332" id="Fill-13" fill="#C0C0C0" mask="url(#mask-6)"></path>
        </g>
    </g>
</svg>