<?xml version="1.0" encoding="utf-8"?>
<!-- Generator: Adobe Illustrator 22.1.0, SVG Export Plug-In . SVG Version: 6.00 Build 0)  -->
<svg version="1.1" id="Layer_1" xmlns="http://www.w3.org/2000/svg" xmlns:xlink="http://www.w3.org/1999/xlink" x="0px" y="0px"
	 viewBox="0 0 512 512" style="enable-background:new 0 0 512 512;" xml:space="preserve">
<style type="text/css">
	.st0{display:none;}
	.st1{display:inline;}
	.st2{display:inline;filter:url(#Adobe_OpacityMaskFilter);}
	.st3{fill:#FFFFFF;}
	.st4{display:inline;mask:url(#mask-2_1_);fill:#C0C0C0;}
	.st5{filter:url(#Adobe_OpacityMaskFilter_1_);}
	.st6{mask:url(#mask-4_1_);fill:#C0C0C0;}
	.st7{filter:url(#Adobe_OpacityMaskFilter_2_);}
	.st8{mask:url(#mask-6_1_);fill:#C0C0C0;}
	.st9{filter:url(#Adobe_OpacityMaskFilter_3_);}
	.st10{mask:url(#mask-8_1_);fill:#C0C0C0;}
	.st11{filter:url(#Adobe_OpacityMaskFilter_4_);}
	.st12{mask:url(#mask-10_1_);fill:#C0C0C0;}
	.st13{filter:url(#Adobe_OpacityMaskFilter_5_);}
	.st14{mask:url(#mask-12_1_);fill:#C0C0C0;}
	.st15{filter:url(#Adobe_OpacityMaskFilter_6_);}
	.st16{mask:url(#mask-14_1_);fill:#C0C0C0;}
	.st17{filter:url(#Adobe_OpacityMaskFilter_7_);}
	.st18{mask:url(#mask-16_1_);fill:#C0C0C0;}
</style>
<g id="Page-1_1_">
	<g id="ic_payment-hover">
		<g id="Page-1" transform="translate(6.000000, 6.000000)">
			<g id="Group-3" class="st0">
				<g id="Clip-2" class="st1">
				</g>
				<defs>
					<filter id="Adobe_OpacityMaskFilter" filterUnits="userSpaceOnUse" x="-186.5" y="-186.5" width="872.9" height="872.9">
						<feColorMatrix  type="matrix" values="1 0 0 0 0  0 1 0 0 0  0 0 1 0 0  0 0 0 1 0"/>
					</filter>
				</defs>
				<mask maskUnits="userSpaceOnUse" x="-186.5" y="-186.5" width="872.9" height="872.9" id="mask-2_1_" class="st1">
					<g style="filter:url(#Adobe_OpacityMaskFilter);">
						<path id="path-1_1_" class="st3" d="M-177.9,250c0-236.3,191.6-427.9,427.9-427.9S677.9,13.7,677.9,250S486.3,677.9,250,677.9
							S-177.9,486.3-177.9,250z M-154.1,250c0,223.2,180.9,404.1,404.1,404.1c223.2,0,404.1-180.9,404.1-404.1
							c0-223.2-180.9-404.1-404.1-404.1C26.8-154.1-154.1,26.8-154.1,250z"/>
					</g>
				</mask>
				<polygon id="Fill-1" class="st4" points="-186.5,686.5 686.5,686.5 686.5,-186.5 -186.5,-186.5 				"/>
			</g>
			<g id="Group-6" transform="translate(125.000000, 125.000000)">
				<g id="Clip-5">
				</g>
				<defs>
					<filter id="Adobe_OpacityMaskFilter_1_" filterUnits="userSpaceOnUse" x="-97.5" y="-97.5" width="445" height="445">
						<feColorMatrix  type="matrix" values="1 0 0 0 0  0 1 0 0 0  0 0 1 0 0  0 0 0 1 0"/>
					</filter>
				</defs>
				<mask maskUnits="userSpaceOnUse" x="-97.5" y="-97.5" width="445" height="445" id="mask-4_1_">
					<g class="st5">
						<path id="path-3_1_" class="st3" d="M-51.3-89h302.5c20.7,0,37.6,16.9,37.6,37.6V63.2h12.5c20.7,0,37.6,16.9,37.6,37.6v200.6
							c0,20.7-16.9,37.6-37.6,37.6H-1.2c-20.7,0-37.6-16.9-37.6-37.6V188.5h-12.5c-20.7,0-37.6-16.9-37.6-37.6V-51.3
							C-89-72.1-72.1-89-51.3-89z M-63.9-51.3v12.5h327.6v-12.5c0-6.9-5.6-12.5-12.5-12.5H-51.3C-58.3-63.9-63.9-58.3-63.9-51.3z
							 M-63.9,11.3h327.6v-25.1H-63.9V11.3z M-63.9,150.9c0,6.9,5.6,12.5,12.5,12.5h12.5v-62.7c0-20.7,16.9-37.6,37.6-37.6h264.9
							V36.4H-63.9V150.9z M-13.7,301.3c0,6.9,5.6,12.5,12.5,12.5h302.5c6.9,0,12.5-5.6,12.5-12.5V100.8c0-6.9-5.6-12.5-12.5-12.5
							H-1.2c-6.9,0-12.5,5.6-12.5,12.5V301.3z"/>
					</g>
				</mask>
				<polygon id="Fill-4" class="st6" points="-97.5,347.5 347.5,347.5 347.5,-97.5 -97.5,-97.5 				"/>
			</g>
			<g id="Group-9" transform="translate(183.000000, 331.000000)">
				<g id="Clip-8">
				</g>
				<defs>
					<filter id="Adobe_OpacityMaskFilter_2_" filterUnits="userSpaceOnUse" x="-55.2" y="49.2" width="193.5" height="42.2">
						<feColorMatrix  type="matrix" values="1 0 0 0 0  0 1 0 0 0  0 0 1 0 0  0 0 0 1 0"/>
					</filter>
				</defs>
				<mask maskUnits="userSpaceOnUse" x="-55.2" y="49.2" width="193.5" height="42.2" id="mask-6_1_">
					<g class="st7">
						<path id="path-5_1_" class="st3" d="M-34.1,57.7c-6.9,0-12.5,5.6-12.5,12.5s5.6,12.5,12.5,12.5h151.3
							c6.9,0,12.5-5.6,12.5-12.5s-5.6-12.5-12.5-12.5H-34.1z"/>
					</g>
				</mask>
				<polygon id="Fill-7" class="st8" points="-55.2,91.4 138.2,91.4 138.2,49.2 -55.2,49.2 				"/>
			</g>
			<g id="Group-12" transform="translate(183.000000, 301.000000)">
				<g id="Clip-11">
				</g>
				<defs>
					<filter id="Adobe_OpacityMaskFilter_3_" filterUnits="userSpaceOnUse" x="-55.2" y="29" width="93.2" height="42.2">
						<feColorMatrix  type="matrix" values="1 0 0 0 0  0 1 0 0 0  0 0 1 0 0  0 0 0 1 0"/>
					</filter>
				</defs>
				<mask maskUnits="userSpaceOnUse" x="-55.2" y="29" width="93.2" height="42.2" id="mask-8_1_">
					<g class="st9">
						<path id="path-7_1_" class="st3" d="M-34.1,37.6c-6.9,0-12.5,5.6-12.5,12.5s5.6,12.5,12.5,12.5h51c6.9,0,12.5-5.6,12.5-12.5
							s-5.6-12.5-12.5-12.5H-34.1z"/>
					</g>
				</mask>
				<polygon id="Fill-10" class="st10" points="-55.2,71.2 38,71.2 38,29 -55.2,29 				"/>
			</g>
			<g id="Group-15" transform="translate(242.000000, 301.000000)">
				<g id="Clip-14">
				</g>
				<defs>
					<filter id="Adobe_OpacityMaskFilter_4_" filterUnits="userSpaceOnUse" x="-13.1" y="29" width="92.3" height="42.2">
						<feColorMatrix  type="matrix" values="1 0 0 0 0  0 1 0 0 0  0 0 1 0 0  0 0 0 1 0"/>
					</filter>
				</defs>
				<mask maskUnits="userSpaceOnUse" x="-13.1" y="29" width="92.3" height="42.2" id="mask-10_1_">
					<g class="st11">
						<path id="path-9_1_" class="st3" d="M8,37.6c-6.9,0-12.5,5.6-12.5,12.5S1.1,62.7,8,62.7h50.1c6.9,0,12.5-5.6,12.5-12.5
							s-5.6-12.5-12.5-12.5H8z"/>
					</g>
				</mask>
				<polygon id="Fill-13" class="st12" points="-13.1,71.2 79.2,71.2 79.2,29 -13.1,29 				"/>
			</g>
			<g id="Group-18" transform="translate(301.000000, 301.000000)">
				<g id="Clip-17">
				</g>
				<defs>
					<filter id="Adobe_OpacityMaskFilter_5_" filterUnits="userSpaceOnUse" x="28.2" y="29" width="93.2" height="42.2">
						<feColorMatrix  type="matrix" values="1 0 0 0 0  0 1 0 0 0  0 0 1 0 0  0 0 0 1 0"/>
					</filter>
				</defs>
				<mask maskUnits="userSpaceOnUse" x="28.2" y="29" width="93.2" height="42.2" id="mask-12_1_">
					<g class="st13">
						<path id="path-11_1_" class="st3" d="M49.3,37.6c-6.9,0-12.5,5.6-12.5,12.5s5.6,12.5,12.5,12.5h51c6.9,0,12.5-5.6,12.5-12.5
							s-5.6-12.5-12.5-12.5H49.3z"/>
					</g>
				</mask>
				<polygon id="Fill-16" class="st14" points="28.2,71.2 121.4,71.2 121.4,29 28.2,29 				"/>
			</g>
			<g id="Group-21" transform="translate(183.000000, 243.000000)">
				<g id="Clip-20">
				</g>
				<defs>
					<filter id="Adobe_OpacityMaskFilter_6_" filterUnits="userSpaceOnUse" x="-55.2" y="-13.3" width="118.2" height="92.3">
						<feColorMatrix  type="matrix" values="1 0 0 0 0  0 1 0 0 0  0 0 1 0 0  0 0 0 1 0"/>
					</filter>
				</defs>
				<mask maskUnits="userSpaceOnUse" x="-55.2" y="-13.3" width="118.2" height="92.3" id="mask-14_1_">
					<g class="st15">
						<path id="path-13_1_" class="st3" d="M-34.1-4.7h76.1c6.9,0,12.5,5.6,12.5,12.5V58c0,6.9-5.6,12.5-12.5,12.5h-76.1
							c-6.9,0-12.5-5.6-12.5-12.5V7.8C-46.7,0.9-41-4.7-34.1-4.7z M-21.6,45.4h51V20.4h-51V45.4z"/>
					</g>
				</mask>
				<polygon id="Fill-19" class="st16" points="-55.2,79.1 63,79.1 63,-13.3 -55.2,-13.3 				"/>
			</g>
			<g id="Group-24" transform="translate(301.000000, 243.000000)">
				<g id="Clip-23">
				</g>
				<defs>
					<filter id="Adobe_OpacityMaskFilter_7_" filterUnits="userSpaceOnUse" x="28.2" y="-13.3" width="93.2" height="42.2">
						<feColorMatrix  type="matrix" values="1 0 0 0 0  0 1 0 0 0  0 0 1 0 0  0 0 0 1 0"/>
					</filter>
				</defs>
				<mask maskUnits="userSpaceOnUse" x="28.2" y="-13.3" width="93.2" height="42.2" id="mask-16_1_">
					<g class="st17">
						<path id="path-15_1_" class="st3" d="M49.3-4.7c-6.9,0-12.5,5.6-12.5,12.5c0,6.9,5.6,12.5,12.5,12.5h51
							c6.9,0,12.5-5.6,12.5-12.5c0-6.9-5.6-12.5-12.5-12.5H49.3z"/>
					</g>
				</mask>
				<polygon id="Fill-22" class="st18" points="28.2,28.9 121.4,28.9 121.4,-13.3 28.2,-13.3 				"/>
			</g>
		</g>
	</g>
</g>
</svg>
