<?xml version="1.0" encoding="UTF-8"?>
<svg width="512px" height="512px" viewBox="0 0 512 512" version="1.1" xmlns="http://www.w3.org/2000/svg" xmlns:xlink="http://www.w3.org/1999/xlink">
    <!-- Generator: Sketch 47.1 (45422) - http://www.bohemiancoding.com/sketch -->
    <title>ic_delete</title>
    <desc>Created with Sketch.</desc>
    <defs>
        <path d="M186.181818,0 L279.272727,0 C317.835636,0 349.090909,31.2552727 349.090909,69.8181818 L349.090909,93.0909091 L442.181818,93.0909091 C455.051636,93.0909091 465.454545,103.517091 465.454545,116.363636 C465.454545,129.210182 455.051636,139.636364 442.181818,139.636364 L418.909091,139.636364 L418.909091,442.181818 C418.909091,480.744727 387.653818,512 349.090909,512 L116.363636,512 C77.824,512 46.5454545,480.744727 46.5454545,442.181818 L46.5454545,139.636364 L23.2727273,139.636364 C10.4029091,139.636364 0,129.210182 0,116.363636 C0,103.517091 10.4029091,93.0909091 23.2727273,93.0909091 L116.363636,93.0909091 L116.363636,69.8181818 C116.363636,31.2552727 147.618909,0 186.181818,0 Z M162.909091,69.8181818 L162.909091,93.0909091 L302.545455,93.0909091 L302.545455,69.8181818 C302.545455,56.9716364 292.142545,46.5454545 279.272727,46.5454545 L186.181818,46.5454545 C173.335273,46.5454545 162.909091,56.9716364 162.909091,69.8181818 Z M93.0909091,442.181818 C93.0909091,455.051636 103.517091,465.454545 116.363636,465.454545 L349.090909,465.454545 C361.960727,465.454545 372.363636,455.051636 372.363636,442.181818 L372.363636,139.636364 L93.0909091,139.636364 L93.0909091,442.181818 Z M256,232.727273 C256,219.857455 266.402909,209.454545 279.272727,209.454545 C292.142545,209.454545 302.545455,219.857455 302.545455,232.727273 L302.545455,372.363636 C302.545455,385.233455 292.142545,395.636364 279.272727,395.636364 C266.402909,395.636364 256,385.233455 256,372.363636 L256,232.727273 Z M162.909091,232.727273 C162.909091,219.857455 173.335273,209.454545 186.181818,209.454545 C199.028364,209.454545 209.454545,219.857455 209.454545,232.727273 L209.454545,372.363636 C209.454545,385.233455 199.028364,395.636364 186.181818,395.636364 C173.335273,395.636364 162.909091,385.233455 162.909091,372.363636 L162.909091,232.727273 Z" id="path-1"></path>
    </defs>
    <g id="Page-1" stroke="none" stroke-width="1" fill="none" fill-rule="evenodd">
        <g id="ic_delete">
            <g id="Page-1" transform="translate(23.000000, 0.000000)">
                <mask id="mask-2" fill="white">
                    <use xlink:href="#path-1"></use>
                </mask>
                <g id="Clip-2"></g>
                <polygon id="Fill-1" fill="#000000" mask="url(#mask-2)" points="-116.363636 628.363636 581.818182 628.363636 581.818182 -116.363636 -116.363636 -116.363636"></polygon>
                <polygon id="Fill-3" fill="#000000" mask="url(#mask-2)" points="-162.909091 651.636364 628.363636 651.636364 628.363636 -139.636364 -162.909091 -139.636364"></polygon>
            </g>
        </g>
    </g>
</svg>